<svg xmlns="http://www.w3.org/2000/svg" width="600" height="545" viewBox="0 0 600 545" role="img" aria-labelledby="title desc">
<title id="title">Pinch Voxel Studio — Python / OpenCV / MediaPipe</title><desc id="desc">Your hands become the interface. Decorative project illustration, not a product screenshot.</desc>
<defs><clipPath id="bounds"><rect width="600" height="545" rx="2"/></clipPath></defs>
<g clip-path="url(#bounds)"><rect x="0" y="0" width="600" height="545" rx="2" fill="#11110f" stroke="none"/><text x="32" y="40" font-family="Arial,Helvetica,sans-serif" font-size="11" font-weight="500" fill="#c8102e" letter-spacing="1.7">02 / COMPUTER VISION</text><g transform="translate(32 66) scale(1.21818)"><rect x="0" y="0" width="440" height="248" rx="14" fill="#b74428" stroke="none"/><path d="M62 104L222 24" stroke="#cf6345" stroke-width="1" fill="none" /><path d="M62 104L222 184" stroke="#cf6345" stroke-width="1" fill="none" /><path d="M91 118.5L251 38.5" stroke="#cf6345" stroke-width="1" fill="none" /><path d="M91 89.5L251 169.5" stroke="#cf6345" stroke-width="1" fill="none" /><path d="M120 133L280 53" stroke="#cf6345" stroke-width="1" fill="none" /><path d="M120 75L280 155" stroke="#cf6345" stroke-width="1" fill="none" /><path d="M149 147.5L309 67.5" stroke="#cf6345" stroke-width="1" fill="none" /><path d="M149 60.5L309 140.5" stroke="#cf6345" stroke-width="1" fill="none" /><path d="M178 162L338 82" stroke="#cf6345" stroke-width="1" fill="none" /><path d="M178 46L338 126" stroke="#cf6345" stroke-width="1" fill="none" /><path d="M207 176.5L367 96.5" stroke="#cf6345" stroke-width="1" fill="none" /><path d="M207 31.5L367 111.5" stroke="#cf6345" stroke-width="1" fill="none" /><path d="M236 191L396 111" stroke="#cf6345" stroke-width="1" fill="none" /><path d="M236 17L396 97" stroke="#cf6345" stroke-width="1" fill="none" /><g transform="translate(195 142)"><path d="M0 -36L36 -18 0 0 -36 -18Z" fill="#fff2df"/><path d="M-36 -18L0 0V36L-36 18Z" fill="#d04c2b"/><path d="M0 0L36 -18V18L0 36Z" fill="#ff976c"/></g><g transform="translate(267 142)"><path d="M0 -36L36 -18 0 0 -36 -18Z" fill="#fff2df"/><path d="M-36 -18L0 0V36L-36 18Z" fill="#d04c2b"/><path d="M0 0L36 -18V18L0 36Z" fill="#ff976c"/></g><g transform="translate(231 124)"><path d="M0 -36L36 -18 0 0 -36 -18Z" fill="#fff2df"/><path d="M-36 -18L0 0V36L-36 18Z" fill="#d04c2b"/><path d="M0 0L36 -18V18L0 36Z" fill="#ff976c"/></g><g><g transform="translate(195 70)"><path d="M0 -36L36 -18 0 0 -36 -18Z" fill="#fff2df"/><path d="M-36 -18L0 0V36L-36 18Z" fill="#d04c2b"/><path d="M0 0L36 -18V18L0 36Z" fill="#ff976c"/></g></g><path d="M114 67H94V87M302 172H322V152" stroke="#ffe6d2" stroke-width="2" fill="none" /><text x="22" y="226" font-family="Arial,Helvetica,sans-serif" font-size="10" font-weight="500" fill="#ffe6d2" letter-spacing="1.7">HAND TRACKING / 3D CANVAS</text></g><text x="30" y="417" font-family="Arial,Helvetica,sans-serif" font-size="35" font-weight="700" fill="#f4f1ea" letter-spacing="-1.1">Pinch Voxel Studio</text><text x="32" y="453" font-family="Arial,Helvetica,sans-serif" font-size="21" font-weight="400" fill="#aaa79f" >Your hands become the interface.</text><path d="M32 480H568" stroke="#3a3935" stroke-width="1" fill="none" /><text x="32" y="514" font-family="Arial,Helvetica,sans-serif" font-size="17" font-weight="400" fill="#f4f1ea" >Python / OpenCV / MediaPipe</text><text x="540" y="519" font-family="Arial,Helvetica,sans-serif" font-size="28" font-weight="400" fill="#c8102e" >↗</text></g><rect x="0.5" y="0.5" width="599" height="544" rx="2" fill="none" stroke="#3a3935"/></svg>
