<svg xmlns="http://www.w3.org/2000/svg" width="560" height="373" viewBox="0 0 560 373" role="img" aria-labelledby="title desc">
<title id="title">Repository language distribution</title><desc id="desc">Repository counts, not lines of code or skill ratings.</desc>
<rect width="560" height="373" rx="2" fill="#11110f"/><rect x="1" y="1" width="558" height="371" rx="1" fill="none" stroke="#3a3935"/>
<text x="28" y="40" font-family="Arial,Helvetica,sans-serif" font-size="24" fill="#f2efe8" font-weight="600" >Repository languages</text><text x="28" y="68" font-family="Arial,Helvetica,sans-serif" font-size="12" fill="#aaa69e" font-weight="400" >Primary language per public original repository</text><rect x="28.00" y="94" width="198.00" height="13" fill="#c8102e"/><rect x="226.00" y="94" width="90.00" height="13" fill="#e0bbb9"/><rect x="316.00" y="94" width="90.00" height="13" fill="#d6cfc2"/><rect x="406.00" y="94" width="36.00" height="13" fill="#b9aaa1"/><rect x="442.00" y="94" width="18.00" height="13" fill="#968b83"/><rect x="460.00" y="94" width="72.00" height="13" fill="#77736d"/><circle cx="34" cy="138" r="4" fill="#c8102e"/><text x="49" y="143" font-family="Arial,Helvetica,sans-serif" font-size="14" fill="#f2efe8" font-weight="400" >Python</text><text x="532" y="143" font-family="Arial,Helvetica,sans-serif" font-size="13" fill="#c8c1b5" font-weight="400" text-anchor="end">11 repos · 39.3%</text><circle cx="34" cy="167" r="4" fill="#e0bbb9"/><text x="49" y="172" font-family="Arial,Helvetica,sans-serif" font-size="14" fill="#f2efe8" font-weight="400" >C++</text><text x="532" y="172" font-family="Arial,Helvetica,sans-serif" font-size="13" fill="#c8c1b5" font-weight="400" text-anchor="end">5 repos · 17.9%</text><circle cx="34" cy="196" r="4" fill="#d6cfc2"/><text x="49" y="201" font-family="Arial,Helvetica,sans-serif" font-size="14" fill="#f2efe8" font-weight="400" >Jupyter Notebook</text><text x="532" y="201" font-family="Arial,Helvetica,sans-serif" font-size="13" fill="#c8c1b5" font-weight="400" text-anchor="end">5 repos · 17.9%</text><circle cx="34" cy="225" r="4" fill="#b9aaa1"/><text x="49" y="230" font-family="Arial,Helvetica,sans-serif" font-size="14" fill="#f2efe8" font-weight="400" >Pawn</text><text x="532" y="230" font-family="Arial,Helvetica,sans-serif" font-size="13" fill="#c8c1b5" font-weight="400" text-anchor="end">2 repos · 7.1%</text><circle cx="34" cy="254" r="4" fill="#968b83"/><text x="49" y="259" font-family="Arial,Helvetica,sans-serif" font-size="14" fill="#f2efe8" font-weight="400" >C#</text><text x="532" y="259" font-family="Arial,Helvetica,sans-serif" font-size="13" fill="#c8c1b5" font-weight="400" text-anchor="end">1 repos · 3.6%</text><circle cx="34" cy="283" r="4" fill="#77736d"/><text x="49" y="288" font-family="Arial,Helvetica,sans-serif" font-size="14" fill="#f2efe8" font-weight="400" >Other</text><text x="532" y="288" font-family="Arial,Helvetica,sans-serif" font-size="13" fill="#c8c1b5" font-weight="400" text-anchor="end">4 repos · 14.3%</text><text x="28" y="345" font-family="Arial,Helvetica,sans-serif" font-size="11" fill="#aaa69e" font-weight="400" >28 classified · 2 without a detected language</text></svg>